 http://69.10.35.194/~ponkleec/imgsrc/1001.html
Virgin girl got her hymen tore and her throat filled with horny flesh.
This bitch now loves fat sausages more than anything else. Her first sex was wild and hot as two sexually obsessed studs fucked her and fed with tasty hot cum. Anya tried not to scream from pain when the huge cock tore her thin hymen. Teen girl enjoyed everything her friends did. She sucked both cocks and rode them eagerly. Her tight hole was pounced hard and Anya screamed from orgasm.

Spoiled_Virgins_Anya.wmv
Format : Windows Media
File size : 744 MiB
Duration : 25mn 18s
Overall bit rate mode : Variable
Overall bit rate : 4 110 Kbps
Maximum Overall bit rate : 4 162 Kbps
Encoded date : UTC 2011-05-28 17:11:31.371

Video
ID : 1
Format : VC-1
Format profile : MP@HL
Codec ID : WMV3
Codec ID/Info : Windows Media Video 9
Codec ID/Hint : WMV3
Description of the codec : Windows Media Video 9 - Professional
Duration : 25mn 18s
Bit rate mode : Variable
Bit rate : 4 000 Kbps
Width : 1 440 pixels
Height : 1 080 pixels
Display aspect ratio : 4:3
Frame rate : 29.970 fps
Bit depth : 8 bits
Scan type : Progressive
Compression mode : Lossy
Bits/(Pixel*Frame) : 0.086
Stream size : 724 MiB (97%)
Language : Russian

Audio
ID : 2
Format : WMA
Format version : Version 2
Codec ID : 161
Codec ID/Info : Windows Media Audio
Description of the codec : Windows Media Audio 9.2 - 128 kbps, 48 kHz, stereo 2-pass CBR
Duration : 25mn 18s
Bit rate mode : Constant
Bit rate : 128 Kbps
Channel(s) : 2 channels
Sampling rate : 48.0 KHz
Bit depth : 16 bits
Stream size : 23.2 MiB (3%)
Language : Russian